# xmcd CD database file
#
# Track frame offsets:
#	150
#	17740
#	33437
#	48222
#	59605
#	80425
#	102717
#	131367
#	146600
#	168972
#	196845
#	216217
#	231955
#
# Disc length: 3318 seconds
#
# Revision: 1
# Processed by: cddbd v1.5.2PL0 Copyright (c) Steve Scherf et al.
# Submitted via: CDex 1.70beta2
#
DISCID=b30cf40d
DTITLE=Sons Of The San Joaquin - Horses Cattle and Coyotes
DYEAR=1999
DGENRE=Country
TTITLE0=Ridin' Easy With The Sun
TTITLE1=Livin' The Life Of The Trail
TTITLE2=Land Of Enchantment
TTITLE3=Abilene Town
TTITLE4=When The Coyotes Come Near
TTITLE5=Trail Drive
TTITLE6=Trilogy For Roy
TTITLE7=He's Runnin' Out Of Roundups
TTITLE8=I Ride Along And Dream
TTITLE9=Border Affair
TTITLE10=Horses, Cattle And Coyotes
TTITLE11=Pale Moon (Over The Bed Ground)
TTITLE12=He Just Can't Be Seen From The Road
EXTD=YEAR: 1999
EXTT0=
EXTT1=
EXTT2=
EXTT3=
EXTT4=
EXTT5=
EXTT6=
EXTT7=
EXTT8=
EXTT9=
EXTT10=
EXTT11=
EXTT12=
PLAYORDER=
